<?xml version="1.0" encoding="UTF-8"?>
<svg width="629px" height="451px" viewBox="0 0 629 451" version="1.1" xmlns="http://www.w3.org/2000/svg" xmlns:xlink="http://www.w3.org/1999/xlink">
    <!-- Generator: Sketch 61.2 (89653) - https://sketch.com -->
    <title>MWF - White</title>
    <desc>Created with Sketch.</desc>
    <defs>
        <polygon id="path-1" points="0.3948 0.547874861 60.215 0.547874861 60.215 75 0.3948 75"></polygon>
        <polygon id="path-3" points="0 451 628.215 451 628.215 0.154 0 0.154"></polygon>
    </defs>
    <g id="Page-1" stroke="none" stroke-width="1" fill="none" fill-rule="evenodd">
        <g id="MWF---White" transform="translate(0.000000, -1.000000)">
            <path d="M0.0002,1.2527 L301.3172,1.2527 C250.8472,63.0757 200.9482,124.1997 150.6742,185.7817 C100.4652,124.2907 50.5882,63.2067 0.0002,1.2527" id="Fill-1" fill="#FFFFFF"></path>
            <path d="M477.0519,127.2991 C527.2869,188.8271 577.1659,249.9181 627.5769,311.6611 L326.5389,311.6611 C376.9129,249.9591 426.7519,188.9111 477.0519,127.2991" id="Fill-3" fill="#FFFFFF"></path>
            <g id="Group-16" transform="translate(0.000000, 0.846000)">
                <path d="M474.3723,448.8486 L461.6043,448.8486 L461.6043,400.8056 C461.0063,400.3206 460.4063,399.8336 459.8083,399.3476 C459.3293,400.5226 459.0693,401.8586 458.3393,402.8476 C452.6073,410.6096 446.7973,418.3126 440.9893,426.0176 C438.0743,429.8856 436.7683,429.9306 433.9113,426.0716 C427.6853,417.6596 421.5363,409.1916 414.3393,400.8556 L414.3393,448.8646 L400.9253,448.8646 L400.9253,379.1526 C405.3053,379.1526 409.6203,378.9016 413.8793,379.2876 C415.3673,379.4226 417.0793,380.8526 418.0633,382.1606 C423.5603,389.4736 428.8553,396.9386 434.2453,404.3326 C435.2943,405.7706 436.4563,407.1256 437.8173,408.8346 C443.9773,400.3896 450.0973,392.5176 455.5993,384.2366 C458.2393,380.2626 461.2003,378.6016 465.8223,379.0996 C468.5813,379.3966 471.3973,379.1546 474.3723,379.1546 L474.3723,448.8486 Z" id="Fill-5" fill="#FFFFFF"></path>
                <g id="Group-9" transform="translate(568.000000, 376.000000)">
                    <mask id="mask-2" fill="white">
                        <use xlink:href="#path-1"></use>
                    </mask>
                    <g id="Clip-8"></g>
                    <path d="M57.5598,15.0907 C55.2148,16.2927 52.9698,17.8267 50.4888,18.5717 C49.0048,19.0187 46.6868,18.8107 45.5388,17.8977 C38.8578,12.5817 31.5268,11.2347 23.4758,13.6447 C19.5078,14.8327 16.5528,17.3197 16.6748,21.8017 C16.7908,26.0347 20.1628,27.7847 23.6288,28.5817 C30.5868,30.1817 37.7568,30.9317 44.6348,32.7877 C56.7928,36.0697 62.1318,45.2417 59.5998,57.6077 C57.9998,65.4167 52.7178,70.0237 45.5628,72.5007 C36.1758,75.7507 26.5858,75.7257 17.0538,73.0377 C9.1928,70.8207 3.6828,65.8687 0.3948,57.6447 C3.8318,55.8017 7.2858,53.9497 11.0568,51.9277 C16.3598,61.1517 24.7378,63.6627 34.5118,62.5717 C37.2428,62.2677 40.1498,61.4517 42.4768,60.0457 C48.7868,56.2357 48.5288,48.2497 41.7328,45.4497 C36.7548,43.4007 31.1248,42.9567 25.8148,41.6787 C22.1108,40.7857 18.3278,40.0137 14.8018,38.6217 C7.8418,35.8737 3.9868,30.6657 3.4908,23.0347 C2.9908,15.3267 5.6668,9.1207 12.4958,5.4537 C24.8168,-1.1633 37.3958,-1.0413 49.7118,5.5457 C53.1718,7.3967 56.1648,10.1197 59.3718,12.4437 C58.7678,13.3247 58.1638,14.2077 57.5598,15.0907" id="Fill-7" fill="#FFFFFF" mask="url(#mask-2)"></path>
                </g>
                <polygon id="Fill-10" fill="#FFFFFF" points="50.1462 392.0243 13.7902 392.0243 13.7902 410.6463 47.9852 410.6463 47.9852 423.4033 13.5002 423.4033 13.5002 448.7513 0.4762 448.7513 0.4762 379.6153 50.1462 379.6153"></polygon>
                <polygon id="Fill-12" fill="#FFFFFF" points="256.9357 448.7099 256.9357 379.5009 269.9837 379.5009 269.9837 436.6019 305.7537 436.6019 305.7537 448.7099"></polygon>
                <mask id="mask-4" fill="white">
                    <use xlink:href="#path-3"></use>
                </mask>
                <g id="Clip-15"></g>
                <polygon id="Fill-14" fill="#FFFFFF" mask="url(#mask-4)" points="146.106 448.994 158.718 448.994 158.718 379.448 146.106 379.448"></polygon>
            </g>
            <path d="M338.375,37.376 L350.416,37.376 L350.416,21.411 L338.375,21.411 L338.375,37.376 Z M338.443,163.578 L350.46,163.578 L350.46,147.727 L338.443,147.727 L338.443,163.578 Z M338.337,79.379 L350.384,79.379 L350.384,63.398 L338.337,63.398 L338.337,79.379 Z M338.335,206.057 L350.356,206.057 L350.356,189.904 L338.335,189.904 L338.335,206.057 Z M338.393,121.774 L350.284,121.774 L350.284,105.599 L338.393,105.599 L338.393,121.774 Z M396.055,37.408 L408.304,37.408 L408.304,21.506 L396.055,21.506 L396.055,37.408 Z M338.456,248.096 L350.462,248.096 L350.462,232.005 L338.456,232.005 L338.456,248.096 Z M396.038,121.711 L408.309,121.711 L408.309,105.778 L396.038,105.778 L396.038,121.711 Z M396.102,163.78 L408.246,163.78 L408.246,147.777 L396.102,147.777 L396.102,163.78 Z M396.103,79.351 L408.245,79.351 L408.245,63.19 L396.103,63.19 L396.103,79.351 Z M408.771,197.472 C408.62,194.129 408.525,192.031 408.421,189.724 L396.075,189.724 L396.075,205.888 C397.525,206.161 398.921,206.423 401.054,206.824 C394.847,214.494 388.945,221.833 382.994,229.13 C373.205,241.131 363.381,253.103 353.578,265.092 C347.326,272.739 347.332,272.744 337.845,274.297 C340.945,284.908 332.459,290.215 326.586,298.189 L326.586,1 L420.739,1 L420.739,8.008 C420.739,63.653 420.67,119.297 420.849234,174.941 C420.866,180.417 419.965,184.941 415.925,188.826 C413.553,191.107 411.682,193.907 408.771,197.472 L408.771,197.472 Z" id="Fill-17" fill="#FFFFFF"></path>
            <path d="M603.714,37.309 L615.635,37.309 L615.635,21.247 L603.714,21.247 L603.714,37.309 Z M603.627,163.762 L615.817,163.762 L615.817,147.868 L603.627,147.868 L603.627,163.762 Z M603.782,79.314 L615.721,79.314 L615.721,63.18 L603.782,63.18 L603.782,79.314 Z M603.589,206.316 C607.211,206.316 610.334,206.489 613.416,206.21 C614.341,206.127 615.856,204.816 615.896,204.006 C616.134,199.3 616.013,194.575 616.013,189.858 L603.589,189.858 L603.589,206.316 Z M603.678,121.732 L615.847,121.732 L615.847,105.623 L603.678,105.623 L603.678,121.732 Z M603.568,248 L615.679,248 L615.679,232.104 L603.568,232.104 L603.568,248 Z M545.907,163.683 L558.172,163.683 L558.172,147.791 L545.907,147.791 L545.907,163.683 Z M545.8,79.26 L558.159,79.26 L558.159,63.385 L545.8,63.385 L545.8,79.26 Z M545.814,37.249 L558.247,37.249 L558.247,21.411 L545.814,21.411 L545.814,37.249 Z M545.861,121.689 L558.064,121.689 L558.064,105.632 L545.861,105.632 L545.861,121.689 Z M553.067,206.713 C555.156,206.435 556.458,206.263 558.082,206.048 L558.082,189.864 L545.735,189.864 C545.626,192.062 545.524,194.152 545.357,197.525 C541.145,192.349 537.547,188.096 534.186,183.664 C533.48,182.734 533.435,181.146 533.435,179.86 C533.404,121.065 533.412,62.27 533.427,3.474 C533.427,2.82 533.579,2.164 533.712,1.089 L627.718,1.089 L627.718,298.544 C622.075,290.397 613.192,285.447 616.256,274.893 C615.468,274.253 615.186,273.843 614.972,273.876 C608.883,274.827 605.471,271.421 601.933,266.984 C586.992,248.237 571.699,229.772 556.542,211.197 C555.513,209.935 554.544,208.623 553.067,206.713 L553.067,206.713 Z" id="Fill-19" fill="#FFFFFF"></path>
            <path d="M219.36,207.409 L231.458,207.409 L231.458,191.662 L219.36,191.662 L219.36,207.409 Z M219.367,165.354 L231.501,165.354 L231.501,149.391 L219.367,149.391 L219.367,165.354 Z M219.291,291.56 L231.414,291.56 L231.414,275.707 L219.291,275.707 L219.291,291.56 Z M219.503,249.743 L231.421,249.743 L231.421,233.578 L219.503,233.578 L219.503,249.743 Z M277.082,207.376 L289.333,207.376 L289.333,191.746 L277.082,191.746 L277.082,207.376 Z M277.005,165.276 L289.342,165.276 L289.342,149.319 L277.005,149.319 L277.005,165.276 Z M277.093,249.715 L289.252,249.715 L289.252,233.548 L277.093,233.548 L277.093,249.715 Z M277.018,291.73 L289.162,291.73 L289.162,275.868 L277.018,275.868 L277.018,291.73 Z M276.933,123.093 L289.183,123.093 L289.183,107.041 L276.933,107.041 L276.933,123.093 Z M277.033,81.253 L289.214,81.253 L289.214,65.003 L277.033,65.003 L277.033,81.253 Z M207.059,311.967 L207.059,304.974 C207.059,249.808 207.174,194.641 206.912482,139.476 C206.881,132.655 208.324,127.168 213.259,122.507 C215.039,120.826 216.423,118.725 218.558,116.121 C218.886,118.836 219.127,120.835 219.408,123.16 L231.438,123.16 L231.438,106.992 C230.014,106.778 228.625,106.57 226.579,106.263 C235.578,95.22 244.265,84.54 252.973,73.878 C260.665,64.46 268.571,55.209 276.002,45.59 C279.377,41.221 282.661,37.745 289.788,39.871 C287.079,28.329 294.935,22.591 301.413,14.976 L301.413,311.967 L207.059,311.967 Z" id="Fill-21" fill="#FFFFFF"></path>
            <path d="M12.4475181,207.409 L24.5455181,207.409 L24.5455181,191.662 L12.4475181,191.662 L12.4475181,207.409 Z M12.4545181,165.354 L24.5885181,165.354 L24.5885181,149.391 L12.4545181,149.391 L12.4545181,165.354 Z M12.3785181,291.56 L24.5015181,291.56 L24.5015181,275.707 L12.3785181,275.707 L12.3785181,291.56 Z M12.5905181,249.743 L24.5085181,249.743 L24.5085181,233.578 L12.5905181,233.578 L12.5905181,249.743 Z M70.1695181,207.376 L82.4205181,207.376 L82.4205181,191.746 L70.1695181,191.746 L70.1695181,207.376 Z M70.0925181,165.276 L82.4295181,165.276 L82.4295181,149.319 L70.0925181,149.319 L70.0925181,165.276 Z M70.1805181,249.715 L82.3395181,249.715 L82.3395181,233.548 L70.1805181,233.548 L70.1805181,249.715 Z M70.1055181,291.73 L82.2495181,291.73 L82.2495181,275.868 L70.1055181,275.868 L70.1055181,291.73 Z M70.0205181,123.093 L82.2705181,123.093 L82.2705181,107.041 L70.0205181,107.041 L70.0205181,123.093 Z M70.1205181,81.253 L82.3015181,81.253 L82.3015181,65.003 L70.1205181,65.003 L70.1205181,81.253 Z M0.146518132,311.967 L0.146518132,304.974 C0.146518132,249.808 0.261518132,194.641 4.26325641e-14,139.476 C-0.0314818683,132.655 1.41151813,127.168 6.34651813,122.507 C8.12651813,120.826 9.51051813,118.725 11.6455181,116.121 C11.9735181,118.836 12.2145181,120.835 12.4955181,123.16 L24.5255181,123.16 L24.5255181,106.992 C23.1015181,106.778 21.7125181,106.57 19.6665181,106.263 C28.6655181,95.22 37.3525181,84.54 46.0605181,73.878 C53.7525181,64.46 61.6585181,55.209 69.0895181,45.59 C72.4645181,41.221 75.7485181,37.745 82.8755181,39.871 C80.1665181,28.329 88.0225181,22.591 94.5005181,14.976 L94.5005181,311.967 L0.146518132,311.967 Z" id="Fill-21" fill="#FFFFFF" transform="translate(47.250259, 163.471500) scale(-1, 1) translate(-47.250259, -163.471500) "></path>
        </g>
    </g>
</svg>